<svg width="156" height="96" viewBox="0 0 156 96" fill="none" xmlns="http://www.w3.org/2000/svg">
<path d="M129.277 58.2502C124.397 60.2502 118.697 61.4502 112.177 61.5502H112.147V62.1102C112.147 62.8602 112.147 64.0702 112.147 64.0702L98.4171 52.6402C98.0471 52.3302 98.0571 51.7502 98.4371 51.4602L112.127 40.8002L112.147 43.4902H112.707C121.747 43.4802 126.407 38.9502 127.667 31.7702C128.937 24.5902 125.877 20.0702 116.827 20.0702H104.457L100.327 43.5102L90.8971 50.9102C90.3971 51.3102 90.3571 52.0602 90.8171 52.5002L97.5971 58.9402L97.4971 59.5002L91.5171 93.4402C91.3471 94.3902 90.5171 95.0902 89.5571 95.0902H70.8671C69.6271 95.0902 68.6871 93.9702 68.9071 92.7502L69.5771 89.1602C79.5371 84.2402 83.3671 77.2702 84.5871 74.3602C84.9071 73.6002 84.6471 72.7302 83.9571 72.2702L73.6871 65.5502L80.3971 27.3402L90.6071 24.9702C91.0771 24.8702 91.3371 24.3702 91.1571 23.9302L84.0871 6.57022L84.6771 3.37024C84.8471 2.42024 85.6771 1.72021 86.6371 1.72021H121.807C144.687 1.72021 153.847 14.6202 150.827 31.7802C149.457 39.5402 145.477 47.0302 138.837 52.5602H133.617C131.267 52.5602 129.357 54.4402 129.317 56.7802L129.287 58.2702L129.277 58.2502Z" fill="#162683"/>
<path d="M75.5072 4.04001C76.2072 4.38001 76.9072 4.74002 77.6072 5.11002L79.4172 1.88L87.2872 21.97C87.4572 22.41 87.1972 22.9 86.7372 23L65.6772 27.58L67.2372 24.48L67.1072 24.35C65.1172 22.55 62.8172 21.29 60.2272 20.55C57.5672 19.8 54.9472 19.42 52.3772 19.42C48.2072 19.42 44.4272 20.24 41.0372 21.88C37.6372 23.52 34.6872 25.72 32.1672 28.46C29.6372 31.21 27.5972 34.27 26.0272 37.64C24.4572 41.01 23.3772 44.38 22.7872 47.75C22.1272 51.47 22.0672 55.06 22.6172 58.52C23.1572 61.98 24.2772 65.04 25.9872 67.7C27.6872 70.36 29.9572 72.47 32.7872 74.02C35.6172 75.57 38.8872 76.35 42.6172 76.35C45.2772 76.35 48.0572 75.91 50.9672 75.02C53.8672 74.13 56.6672 72.74 59.3572 70.83C61.5372 69.28 63.4272 67.33 65.0272 64.98C65.6372 64.09 66.8672 63.83 67.7672 64.43L80.4172 72.75C81.3472 73.36 81.5872 74.61 80.9772 75.54C78.3972 79.42 75.0072 82.79 70.7772 85.66C65.9372 88.94 60.6872 91.45 55.0272 93.17C49.3572 94.9 43.9072 95.76 38.6772 95.76C31.8472 95.76 25.8272 94.36 20.5972 91.57C15.3672 88.78 11.1072 85.05 7.80722 80.4C4.50722 75.75 2.23722 70.51 0.997218 64.71C-0.242782 58.9 -0.322791 52.99 0.737209 46.96C1.75721 41.2 3.8172 35.54 6.9172 30C10.0272 24.46 14.0172 19.43 18.8872 14.9C23.7672 10.38 29.3672 6.77003 35.6972 4.06003C42.0272 1.36003 48.9172 0 56.3572 0C63.7972 0 70.0272 1.31 75.3072 3.94" fill="#155EE9"/>
<path d="M155.557 68.6301V77.7301C155.557 78.3601 155.047 78.8701 154.417 78.8701H144.877V89.6301C144.877 90.2601 144.367 90.7701 143.737 90.7701H133.467C132.837 90.7701 132.327 90.2601 132.327 89.6301V78.8701H122.787C122.157 78.8701 121.647 78.3601 121.647 77.7301V68.6301C121.647 68.0001 122.157 67.4901 122.787 67.4901H132.327V56.7301C132.327 56.1001 132.837 55.5901 133.467 55.5901H143.737C144.367 55.5901 144.877 56.1001 144.877 56.7301V67.4901H154.417C155.047 67.4901 155.557 68.0001 155.557 68.6301Z" fill="#162683"/>
</svg>
