<svg width="578" height="101" viewBox="0 0 578 101" fill="none" xmlns="http://www.w3.org/2000/svg">
<path d="M67.45 28.33C65.43 26.47 63.09 25.16 60.43 24.41C57.77 23.66 55.15 23.28 52.58 23.28C48.41 23.28 44.63 24.1 41.24 25.74C37.84 27.38 34.89 29.58 32.37 32.32C29.84 35.07 27.8 38.13 26.23 41.5C24.66 44.87 23.58 48.24 22.99 51.61C22.33 55.33 22.27 58.92 22.82 62.38C23.36 65.84 24.48 68.9 26.19 71.56C27.89 74.22 30.16 76.33 32.99 77.88C35.82 79.43 39.09 80.21 42.82 80.21C45.48 80.21 48.26 79.77 51.17 78.88C54.07 77.99 56.87 76.6 59.56 74.69C61.75 73.13 63.64 71.18 65.24 68.83C65.85 67.93 67.06 67.7 67.97 68.3L80.62 76.62C81.56 77.24 81.79 78.49 81.17 79.42C78.6 83.29 75.2 86.66 70.98 89.52C66.14 92.8 60.89 95.31 55.23 97.03C49.56 98.76 44.11 99.62 38.88 99.62C32.05 99.62 26.03 98.22 20.8 95.43C15.57 92.64 11.31 88.91 8.00997 84.26C4.70997 79.61 2.43997 74.37 1.19997 68.57C-0.0400313 62.76 -0.120026 56.85 0.939974 50.82C1.95997 45.06 4.01997 39.4 7.11997 33.86C10.23 28.32 14.22 23.29 19.09 18.76C23.97 14.24 29.57 10.63 35.9 7.91998C42.23 5.21998 49.12 3.85999 56.56 3.85999C65.43 3.85999 72.78 5.77002 78.63 9.58002" fill="#BABAB8"/>
<path d="M138.66 45.73C138.49 46.67 137.69 47.34 136.73 47.37C132.2 47.53 127.95 48.34 123.97 49.8C119.51 51.44 116.07 53.86 113.65 57.05L106.55 97.3C106.38 98.25 105.55 98.95 104.59 98.95H84.98L96.86 31.57C97.03 30.62 97.86 29.92 98.82 29.92H114.32C115.56 29.92 116.5 31.04 116.28 32.26L114.35 43.22C117.57 38.52 121.32 34.84 125.61 32.18C129.89 29.52 134.12 28.15 138.31 28.06C138.61 28.06 139.01 28.06 139.43 28.07C140.65 28.09 141.56 29.21 141.35 30.41L138.65 45.73H138.66Z" fill="#BABAB8"/>
<path d="M168.14 100.28C162.2 100.28 157.09 99.34 152.81 97.45C148.53 95.57 145.06 93 142.4 89.76C139.74 86.52 137.93 82.77 137 78.52C136.06 74.27 136.01 69.82 136.83 65.17C138 58.55 140.54 52.52 144.47 47.08C148.4 41.64 153.45 37.24 159.63 33.89C165.81 30.54 172.84 28.86 180.73 28.86C188.62 28.86 195.05 30.52 200 33.84C204.95 37.16 208.42 41.5 210.4 46.87C212.38 52.24 212.81 58.07 211.71 64.35C211.49 65.57 211.22 66.77 210.88 67.95C210.71 68.53 210.56 69.07 210.41 69.58C210.17 70.44 209.38 71.03 208.49 71.03H158.4C158.13 74.05 158.55 76.59 159.65 78.66C160.75 80.73 162.35 82.3 164.47 83.38C166.59 84.46 168.93 85 171.5 85C174.69 85 177.82 84.25 180.87 82.74C183.47 81.46 185.51 79.8 187 77.75C187.49 77.08 188.35 76.81 189.14 77.04L202.21 80.88C203.56 81.28 204.1 82.92 203.23 84.03C201.12 86.72 198.62 89.15 195.71 91.32C191.98 94.11 187.78 96.31 183.11 97.9C178.44 99.5 173.44 100.29 168.12 100.29L168.14 100.28ZM160.17 57.99H190.49C190.63 55.2 190.21 52.77 189.25 50.69C188.29 48.62 186.79 47.01 184.78 45.87C182.76 44.73 180.43 44.16 177.77 44.16C175.11 44.16 172.46 44.73 170.09 45.87C167.72 47.01 165.68 48.62 163.99 50.69C162.3 52.76 161.02 55.2 160.18 57.99H160.17Z" fill="#BABAB8"/>
<path d="M214.75 64.5C215.94 57.77 218.33 51.73 221.94 46.35C225.55 40.98 229.93 36.72 235.1 33.57C240.26 30.43 245.86 28.85 251.89 28.85C256.76 28.85 260.99 30.03 264.57 32.37C268.14 34.72 270.61 37.8 271.98 41.61L278.7 3.48999C278.87 2.53999 279.7 1.84003 280.66 1.84003H297.89C299.13 1.84003 300.07 2.95999 299.85 4.17999L287.32 75.25C286.94 77.38 287.04 78.86 287.6 79.71C287.88 80.13 288.25 80.34 288.82 80.37C290.03 80.44 290.95 81.47 290.73 82.66L287.93 97.56C287.78 98.38 287.13 99.02 286.31 99.16C283.09 99.71 280.47 99.98 278.44 99.98C274.8 99.98 272 99.18 270.02 97.59C268.04 95.99 267.03 93.78 267 90.94L267.23 87.35C263.98 91.7 260.04 94.93 255.41 97.06C250.78 99.19 246.11 100.25 241.41 100.25C236.71 100.25 232.37 99.35 228.65 97.56C224.93 95.77 221.87 93.26 219.47 90.03C217.07 86.8 215.46 83 214.63 78.63C213.8 74.26 213.84 69.54 214.73 64.48L214.75 64.5ZM266.6 72.9L269.1 58.7C268.62 56.38 267.72 54.35 266.38 52.63C265.04 50.91 263.42 49.53 261.52 48.5C259.62 47.47 257.6 46.95 255.48 46.95C253.17 46.95 250.98 47.42 248.91 48.37C246.83 49.32 244.94 50.63 243.23 52.31C241.51 53.99 240.09 55.9 238.96 58.06C237.83 60.21 237.05 62.49 236.62 64.9C236.18 67.4 236.19 69.7 236.67 71.81C237.14 73.92 237.99 75.77 239.21 77.36C240.44 78.95 241.99 80.18 243.88 81.04C245.77 81.9 247.91 82.33 250.3 82.33C251.81 82.33 253.31 82.09 254.82 81.62C256.32 81.15 257.78 80.52 259.21 79.75C260.63 78.97 261.98 77.99 263.26 76.78C264.54 75.57 265.65 74.28 266.6 72.9Z" fill="#BABAB8"/>
<path d="M297.4 96.61L309.01 30.78C309.18 29.83 310.01 29.13 310.97 29.13H328.2C329.44 29.13 330.38 30.25 330.16 31.47L318.55 97.3C318.38 98.25 317.55 98.95 316.59 98.95H299.36C298.12 98.95 297.18 97.83 297.4 96.61ZM311.11 18.81L313.81 3.52002C313.98 2.57002 314.81 1.87 315.77 1.87H333C334.24 1.87 335.18 2.99002 334.96 4.21002L332.26 19.5C332.09 20.45 331.26 21.15 330.3 21.15H313.07C311.83 21.15 310.89 20.03 311.11 18.81Z" fill="#BABAB8"/>
<path d="M75.72 7.89001C76.42 8.23001 77.12 8.59002 77.82 8.96002L79.63 5.72998L87.83 26.66L65.88 31.43L67.49 28.24" fill="#BABAB8"/>
<path d="M501.85 98.95H481.12L482.9 88.84C477.32 95.23 468.66 99.75 458.84 99.75C441.94 99.75 432.63 87.91 436.13 68.09L443.49 26.37C443.66 25.42 444.49 24.72 445.45 24.72H463.67C464.91 24.72 465.85 25.84 465.63 27.06L458.94 65.02C457.16 75.13 461.81 80.72 470.19 80.72C478.57 80.72 485.32 75.13 487.11 65.02L493.93 26.36C494.1 25.41 494.93 24.71 495.89 24.71H514.24C515.48 24.71 516.42 25.83 516.2 27.05L503.82 97.29C503.65 98.24 502.82 98.94 501.86 98.94L501.85 98.95Z" fill="white"/>
<path d="M538.71 100.01C520.1 100.01 509.09 89.97 509.4 76.58C509.43 75.49 510.31 74.6 511.4 74.6H529.72C530.7 74.6 531.58 75.3 531.69 76.27C532.18 80.52 535.93 83.25 541.4 83.25C547.16 83.25 550.64 80.59 551.23 77.26C553.34 65.29 511.99 73.93 516.8 46.67C519.03 34.03 531.47 23.66 550.59 23.66C568.59 23.66 577.25 33.35 577.01 46.95C576.99 48.05 576.1 48.93 575.01 48.93H558.12C557.09 48.93 556.28 48.14 556.15 47.12C555.61 43.1 552.46 40.55 546.96 40.55C541.46 40.55 538.46 42.68 537.83 46.27C535.74 58.11 576.78 49.73 572.3 77.4C570.02 90.3 557.05 100.01 538.71 100.01Z" fill="white"/>
<path d="M374.24 65.96C374.24 66.71 374.24 67.92 374.24 67.92L359.79 55.89L374.23 44.65L374.25 47.34H374.81C383.85 47.33 388.51 42.8 389.77 35.62C391.04 28.44 387.98 23.92 378.93 23.92H366.56L362.43 47.36L352.05 55.51L359.71 62.79L359.61 63.35L353.63 97.29C353.46 98.24 352.63 98.94 351.67 98.94H332.98C331.74 98.94 330.8 97.82 331.02 96.6L346.78 7.21997C346.95 6.26997 347.78 5.57001 348.74 5.57001H383.91C406.79 5.57001 415.95 18.47 412.93 35.63C410.24 50.86 397.51 65.05 374.29 65.41H374.26V65.97L374.24 65.96Z" fill="white"/>
<path d="M423.69 0.51001H442.38C443.62 0.51001 444.56 1.62998 444.34 2.84998L427.69 97.28C427.52 98.23 426.69 98.93 425.73 98.93H407.04C405.8 98.93 404.86 97.81 405.08 96.59L421.73 2.15997C421.9 1.20997 422.73 0.51001 423.69 0.51001Z" fill="white"/>
</svg>
